<?xml version="1.0" standalone="no"?>
<!DOCTYPE svg PUBLIC "-//W3C//DTD SVG 20010904//EN"
 "http://www.w3.org/TR/2001/REC-SVG-20010904/DTD/svg10.dtd">
<svg version="1.0" xmlns="http://www.w3.org/2000/svg"
 width="1000.000000pt" height="1000.000000pt" viewBox="0 0 1000.000000 1000.000000"
 preserveAspectRatio="xMidYMid meet">

<g transform="translate(0.000000,1000.000000) scale(0.100000,-0.100000)"
fill="#000000" stroke="none">
<path d="M2400 6950 l0 -650 325 0 325 0 0 325 0 325 325 0 325 0 0 325 0 325
-650 0 -650 0 0 -650z"/>
<path d="M6300 7275 l0 -325 325 0 325 0 0 -325 0 -325 325 0 325 0 0 650 0
650 -650 0 -650 0 0 -325z"/>
<path d="M5000 4350 l0 -1950 325 0 325 0 0 1950 0 1950 -325 0 -325 0 0
-1950z"/>
<path d="M3700 3775 l0 -1375 325 0 325 0 0 1375 0 1375 -325 0 -325 0 0
-1375z"/>
<path d="M2400 3205 l0 -805 325 0 325 0 0 805 0 805 -325 0 -325 0 0 -805z"/>
<path d="M6950 3375 l0 -325 -325 0 -325 0 0 -325 0 -325 650 0 650 0 0 650 0
650 -325 0 -325 0 0 -325z"/>
</g>
</svg>
